:SAMPLES-PER-SECOND 30
:FULLY-SPECIFIED
:DEGREES
411
root  -6.19687 36.037 -1.76381 28.1386 -77.661 -31.458
RightUpLeg  18.5892 -1.11565 11.7371
RightLeg  28.973 0.636589 0.116188
RightFoot  -19.4643 0.440006 7.95054
RightToes  7.56698e-010 0 -3.6325e-017
Spine  6.52825 2.45709 6.80023
Spine1  11.7652 4.26592 -3.1987
HEad  -13.7663 0.246125 12.9034
LeftShoulder1  3.78566 -9.91979 -21.8724
LeftArm  -15.1189 -1.24211 -58.9602
LeftForeArm  -11.1294 -20.4508 -6.04706
LeftHand  -1.10546 0.337076 25.2422
RightShoulder  1.11937 2.21021 12.6008
RightArm  -52.0916 28.9914 33.7987
RightForeArm  141.949 65.0439 155.988
RightHand  -1.03374 1.96851 -16.4164
LeftUpLeg  -29.3191 -5.42976 -8.39662
LeftLeg  45.5806 12.4512 13.62
LeftFoot  -8.90689 -0.209035 10.4374
LeftToes  -3.13779e-010 -2.47553e-011 -5.36621e-011
412
root  -6.0047 36.4381 -1.63582 28.1065 -78.5408 -32.1206
RightUpLeg  18.4661 -1.28406 11.6438
RightLeg  29.4766 -2.55471 -1.80276
RightFoot  -16.8428 0.203583 6.82432
RightToes  7.56698e-010 0 -3.6325e-017
Spine  7.13415 1.39146 6.69903
Spine1  13.7355 2.99091 -2.45332
HEad  -17.5453 5.82592 10.9431
LeftShoulder1  3.779 -9.69272 -22.3347
LeftArm  -11.3414 -6.82532 -58.4526
LeftForeArm  -11.5474 -20.5768 -6.06359
LeftHand  -1.17511 0.528943 27.774
RightShoulder  1.21674 2.60427 12.9514
RightArm  -47.6569 30.022 39.3564
RightForeArm  144.681 63.8674 157.442
RightHand  -0.977478 1.83244 -15.8203
LeftUpLeg  -28.6783 -2.22955 -9.01592
LeftLeg  44.244 12.5673 13.1634
LeftFoot  -5.15324 -0.580515 11.2629
LeftToes  -3.13779e-010 -2.47553e-011 -5.36621e-011
413
root  -5.53565 37.797 -1.16079 35.789 -81.889 -39.1598
RightUpLeg  14.9174 -0.610915 8.64864
RightLeg  30.3185 -4.2014 -2.88713
RightFoot  -6.25007 -0.427675 8.22284
RightToes  7.56698e-010 0 -3.6325e-017
Spine  9.04471 1.19379 8.40158
Spine1  12.4388 3.20918 -3.90691
HEad  -18.4966 10.4033 7.09686
LeftShoulder1  3.61635 -9.97763 -20.4086
LeftArm  -9.92743 -9.45362 -60.7711
LeftForeArm  -10.6324 -22.8316 -5.75491
LeftHand  -1.37432 -0.0209355 29.1783
RightShoulder  1.42458 3.31015 14.0427
RightArm  -40.0345 26.3881 46.8635
RightForeArm  140.112 68.3947 151.606
RightHand  -1.11138 2.54857 -16.3752
LeftUpLeg  -26.4146 3.45961 -9.3864
LeftLeg  35.4252 8.96704 7.41933
LeftFoot  4.5533 -1.00671 7.38172
LeftToes  -3.13779e-010 -2.47553e-011 -5.36621e-011
414
root  -4.92702 39.3378 -0.496526 52.9376 -85.5679 -55.2789
RightUpLeg  7.71599 0.85154 4.57281
RightLeg  34.613 -2.53731 -2.10062
RightFoot  10.1486 -1.46046 8.28186
RightToes  7.56698e-010 0 -3.6325e-017
Spine  12.5327 0.980705 8.96915
Spine1  8.65929 2.77502 -3.25981
HEad  -18.2007 15.1418 -0.0579537
LeftShoulder1  3.48935 -10.3313 -18.6755
LeftArm  -11.6605 -8.95146 -63.02
LeftForeArm  -6.14519 -29.5769 -6.7112
LeftHand  -1.61602 -1.05735 28.8074
RightShoulder  1.62528 4.08047 14.6303
RightArm  -33.5001 22.4743 52.8214
RightForeArm  111.406 77.5318 119.958
RightHand  -1.34678 4.08669 -16.6805
LeftUpLeg  -21.9077 6.78535 -9.15043
LeftLeg  21.9103 1.58954 0.905803
LeftFoot  15.319 0.375249 -1.82053
LeftToes  -3.13779e-010 -2.47553e-011 -5.36621e-011
415
root  -4.40644 40.4114 0.0831605 66.2344 -87.1528 -68.0876
RightUpLeg  -0.738135 1.22156 2.10284
RightLeg  41.2518 -1.92423 -2.15754
RightFoot  25.4552 -1.64216 5.49206
RightToes  7.56698e-010 0 -3.6325e-017
Spine  15.414 0.0730802 6.99615
Spine1  6.42026 0.31155 1.8617
HEad  -19.5776 20.5139 -8.78192
LeftShoulder1  3.50805 -10.4268 -18.6365
LeftArm  -13.3896 -8.41229 -62.3096
LeftForeArm  0.491882 -41.2141 -9.77008
LeftHand  -1.72326 -1.622 28.2538
RightShoulder  1.66526 4.44706 14.0816
RightArm  -29.7375 23.7374 56.0987
RightForeArm  34.5049 73.1121 39.1361
RightHand  -1.71251 6.22127 -17.2676
LeftUpLeg  -17.4748 3.38804 -7.24671
LeftLeg  13.6499 -2.24711 -0.735617
LeftFoot  21.1509 3.38829 -12.2684
LeftToes  -3.13779e-010 -2.47553e-011 -5.36621e-011
416
root  -4.04924 41.2198 0.554553 66.6976 -87.9084 -68.4588
RightUpLeg  -8.34372 0.0632419 0.715512
RightLeg  46.8914 -5.22971 -6.32824
RightFoot  30.6663 -0.679907 2.24483
RightToes  7.56698e-010 0 -3.6325e-017
Spine  16.4655 -1.25645 3.81705
Spine1  7.11543 -2.88129 7.39235
HEad  -21.9 25.5169 -15.5931
LeftShoulder1  3.56982 -10.3609 -19.2465
LeftArm  -14.947 -9.56041 -58.5722
LeftForeArm  10.9786 -56.7368 -16.6578
LeftHand  -1.60429 -0.96519 29.0227
RightShoulder  1.56408 4.29193 13.1077
RightArm  -28.1424 30.4502 58.2577
RightForeArm  9.58411 50.1354 12.175
RightHand  -2.31621 8.53081 -19.465
LeftUpLeg  -15.3149 -2.8496 -5.52839
LeftLeg  17.249 -0.440838 0.242912
LeftFoot  19.4585 4.3208 -16.0277
LeftToes  -3.13779e-010 -2.47553e-011 -5.36621e-011
417
root  -3.89892 41.7708 1.05488 68.86 -89.9598 -70.8096
RightUpLeg  -15.3588 -0.68548 -0.101115
RightLeg  51.0824 -9.12715 -12.2031
RightFoot  24.6243 0.179689 0.0197277
RightToes  7.56698e-010 0 -3.6325e-017
Spine  16.5738 -2.08887 2.36759
Spine1  7.9972 -4.44029 9.03348
HEad  -22.2772 29.268 -18.8112
LeftShoulder1  3.56524 -10.1864 -19.564
LeftArm  -17.5603 -11.6359 -53.7401
LeftForeArm  35.7116 -73.1192 -37.8057
LeftHand  -1.25359 0.604379 30.0122
RightShoulder  1.4821 4.01761 12.7182
RightArm  -29.7762 36.5854 60.1447
RightForeArm  3.00833 27.5242 5.67214
RightHand  -2.68156 9.53505 -20.9866
LeftUpLeg  -12.4971 -7.05842 -4.96583
LeftLeg  26.5592 1.49414 1.11557
LeftFoot  13.724 2.92505 -13.3991
LeftToes  -3.13779e-010 -2.47553e-011 -5.36621e-011
